<svg width="218" height="48" viewBox="0 0 218 48" fill="none" xmlns="http://www.w3.org/2000/svg">
<path d="M0 24C0 10.7452 10.7452 0 24 0H194C207.255 0 218 10.7452 218 24V24C218 37.2548 207.255 48 194 48H24C10.7452 48 0 37.2548 0 24V24Z" fill="white"/>
<path d="M27.8282 31H33.4213C36.3616 31 37.9276 29.4659 37.9276 27.3821C37.9276 25.4453 36.5406 24.2756 35.0512 24.2053V24.0774C36.4127 23.7706 37.4163 22.8054 37.4163 21.2649C37.4163 19.3026 35.9589 17.9091 33.0697 17.9091H27.8282V31ZM30.596 28.7372V25.2599H32.9163C34.2458 25.2599 35.0704 26.027 35.0704 27.1072C35.0704 28.0916 34.3992 28.7372 32.8524 28.7372H30.596ZM30.596 23.3871V20.1463H32.699C33.9262 20.1463 34.623 20.7791 34.623 21.7251C34.623 22.7607 33.7792 23.3871 32.6478 23.3871H30.596ZM44.1519 31.1918C46.5809 31.1918 48.2172 30.0092 48.6008 28.1875L46.0823 28.0213C45.8074 28.7692 45.1043 29.1591 44.1966 29.1591C42.8351 29.1591 41.9722 28.2578 41.9722 26.794V26.7876H48.6583V26.0398C48.6583 22.7031 46.6384 21.054 44.0432 21.054C41.154 21.054 39.2812 23.1058 39.2812 26.1357C39.2812 29.2486 41.1285 31.1918 44.1519 31.1918ZM41.9722 25.1001C42.0297 23.9815 42.8799 23.0866 44.088 23.0866C45.2705 23.0866 46.0887 23.9304 46.0951 25.1001H41.9722ZM54.8714 31.1918C57.4857 31.1918 59.1285 29.6577 59.2563 27.4013H56.6867C56.5269 28.4496 55.8366 29.0376 54.9033 29.0376C53.6313 29.0376 52.8067 27.9702 52.8067 26.0909C52.8067 24.2372 53.6377 23.1761 54.9033 23.1761C55.9005 23.1761 56.5397 23.8345 56.6867 24.8125H59.2563C59.1412 22.5433 57.4218 21.054 54.8586 21.054C51.8799 21.054 50.039 23.1186 50.039 26.1293C50.039 29.1143 51.8479 31.1918 54.8714 31.1918ZM65.4358 31.1918C68.4145 31.1918 70.2682 29.1527 70.2682 26.1293C70.2682 23.0866 68.4145 21.054 65.4358 21.054C62.4571 21.054 60.6034 23.0866 60.6034 26.1293C60.6034 29.1527 62.4571 31.1918 65.4358 31.1918ZM65.4486 29.0824C64.0743 29.0824 63.3712 27.8232 63.3712 26.1101C63.3712 24.397 64.0743 23.1314 65.4486 23.1314C66.7973 23.1314 67.5004 24.397 67.5004 26.1101C67.5004 27.8232 66.7973 29.0824 65.4486 29.0824ZM72.0388 31H74.7618V25.1065C74.7618 24.0199 75.4521 23.2976 76.3598 23.2976C77.2547 23.2976 77.8556 23.9112 77.8556 24.8764V31H80.4955V25.0043C80.4955 23.9879 81.0771 23.2976 82.0679 23.2976C82.9372 23.2976 83.5892 23.8409 83.5892 24.9339V31H86.3058V24.397C86.3058 22.2685 85.0402 21.054 83.2121 21.054C81.7739 21.054 80.6553 21.7891 80.2526 22.9141H80.1503C79.8371 21.7763 78.8335 21.054 77.4848 21.054C76.1617 21.054 75.1581 21.7571 74.749 22.9141H74.634V21.1818H72.0388V31ZM92.9312 31.1918C95.3602 31.1918 96.9965 30.0092 97.3801 28.1875L94.8616 28.0213C94.5867 28.7692 93.8836 29.1591 92.9759 29.1591C91.6144 29.1591 90.7515 28.2578 90.7515 26.794V26.7876H97.4376V26.0398C97.4376 22.7031 95.4177 21.054 92.8225 21.054C89.9333 21.054 88.0605 23.1058 88.0605 26.1357C88.0605 29.2486 89.9078 31.1918 92.9312 31.1918ZM90.7515 25.1001C90.809 23.9815 91.6592 23.0866 92.8673 23.0866C94.0498 23.0866 94.868 23.9304 94.8744 25.1001H90.7515ZM106.18 31.1854C107.631 31.1854 108.571 30.5526 109.05 29.6385H109.127V31H111.709V24.3778C111.709 22.0384 109.728 21.054 107.542 21.054C105.19 21.054 103.643 22.179 103.266 23.9688L105.784 24.1733C105.969 23.5213 106.551 23.0419 107.529 23.0419C108.456 23.0419 108.986 23.5085 108.986 24.3139V24.3523C108.986 24.9851 108.315 25.0682 106.609 25.2344C104.665 25.4134 102.92 26.0653 102.92 28.2578C102.92 30.201 104.307 31.1854 106.18 31.1854ZM106.96 29.3061C106.123 29.3061 105.522 28.9162 105.522 28.1683C105.522 27.4013 106.155 27.0241 107.114 26.8899C107.708 26.8068 108.68 26.6662 109.006 26.4489V27.4908C109.006 28.5199 108.155 29.3061 106.96 29.3061ZM126.72 22.1406H129.532C129.174 19.5518 126.892 17.7301 123.933 17.7301C120.475 17.7301 117.809 20.223 117.809 24.4673C117.809 28.6094 120.302 31.179 123.99 31.179C127.295 31.179 129.653 29.0888 129.653 25.6435V23.9943H124.176V26.0781H126.988C126.95 27.7017 125.844 28.7308 124.003 28.7308C121.926 28.7308 120.615 27.1776 120.615 24.4418C120.615 21.7188 121.977 20.1783 123.977 20.1783C125.403 20.1783 126.368 20.9134 126.72 22.1406ZM134.404 25.3239C134.411 24.0582 135.184 23.3168 136.296 23.3168C137.402 23.3168 138.054 24.0263 138.048 25.2344V31H140.771V24.7486C140.777 22.4474 139.422 21.054 137.377 21.054C135.887 21.054 134.89 21.7571 134.443 22.9141H134.328V17.9091H131.681V31H134.404V25.3239ZM147.35 31.1918C150.329 31.1918 152.182 29.1527 152.182 26.1293C152.182 23.0866 150.329 21.054 147.35 21.054C144.371 21.054 142.517 23.0866 142.517 26.1293C142.517 29.1527 144.371 31.1918 147.35 31.1918ZM147.363 29.0824C145.988 29.0824 145.285 27.8232 145.285 26.1101C145.285 24.397 145.988 23.1314 147.363 23.1314C148.711 23.1314 149.415 24.397 149.415 26.1101C149.415 27.8232 148.711 29.0824 147.363 29.0824ZM162.122 23.9815C161.879 22.1726 160.422 21.054 157.941 21.054C155.429 21.054 153.774 22.2173 153.78 24.1094C153.774 25.5795 154.701 26.532 156.618 26.9155L158.319 27.2543C159.175 27.4268 159.565 27.7401 159.578 28.2322C159.565 28.8139 158.932 29.2294 157.98 29.2294C157.008 29.2294 156.363 28.8139 156.196 28.0149L153.518 28.1555C153.774 30.0348 155.372 31.1918 157.973 31.1918C160.517 31.1918 162.339 29.8942 162.346 27.9574C162.339 26.5384 161.412 25.6882 159.508 25.2983L157.731 24.9403C156.816 24.7422 156.478 24.429 156.484 23.956C156.478 23.3679 157.142 22.9844 157.986 22.9844C158.932 22.9844 159.495 23.5021 159.629 24.1349L162.122 23.9815ZM169.283 21.1818H167.435V18.8295H164.712V21.1818H163.37V23.2273H164.712V28.3409C164.699 30.2649 166.01 31.2173 167.985 31.1342C168.688 31.1087 169.187 30.968 169.462 30.8786L169.033 28.8523C168.899 28.8778 168.611 28.9418 168.356 28.9418C167.812 28.9418 167.435 28.7372 167.435 27.983V23.2273H169.283V21.1818ZM179.09 27.9766L185.539 21.5206L185.526 26.3594H187.623V17.9091H179.179L179.166 19.9929H184.011L177.562 26.4489L179.09 27.9766Z" fill="#1E1E1E"/>
</svg>
