<svg width="239" height="48" viewBox="0 0 239 48" fill="none" xmlns="http://www.w3.org/2000/svg">
<rect width="239" height="48" rx="24" fill="white"/>
<path d="M38.0644 22.229C37.4374 22.229 36.9424 22.779 36.9424 23.45C36.9424 24.121 37.4484 24.671 38.0644 24.671C38.6914 24.671 39.1864 24.121 39.1864 23.45C39.1974 22.779 38.6914 22.229 38.0644 22.229ZM42.0794 22.229C41.4524 22.229 40.9574 22.779 40.9574 23.45C40.9574 24.121 41.4634 24.671 42.0794 24.671C42.7064 24.671 43.2014 24.121 43.2014 23.45C43.2014 22.779 42.7064 22.229 42.0794 22.229Z" fill="#1E1E1E"/>
<path d="M47.4252 13H32.6852C31.4422 13 30.4302 14.012 30.4302 15.266V30.138C30.4302 31.392 31.4422 32.404 32.6852 32.404H45.1592L44.5762 30.369L45.9842 31.678L47.3152 32.91L49.6802 35V15.266C49.6802 14.012 48.6682 13 47.4252 13ZM43.1792 27.366C43.1792 27.366 42.7832 26.893 42.4532 26.475C43.8942 26.068 44.4442 25.166 44.4442 25.166C43.9932 25.463 43.5642 25.672 43.1792 25.815C42.6292 26.046 42.1012 26.2 41.5842 26.288C40.5282 26.486 39.5602 26.431 38.7352 26.277C38.1082 26.156 37.5692 25.98 37.1182 25.804C36.8652 25.705 36.5902 25.584 36.3152 25.43C36.2822 25.408 36.2492 25.397 36.2162 25.375C36.1942 25.364 36.1832 25.353 36.1722 25.342C35.9742 25.232 35.8642 25.155 35.8642 25.155C35.8642 25.155 36.3922 26.035 37.7892 26.453C37.4592 26.871 37.0522 27.366 37.0522 27.366C34.6212 27.289 33.6972 25.694 33.6972 25.694C33.6972 22.152 35.2812 19.281 35.2812 19.281C36.8652 18.093 38.3722 18.126 38.3722 18.126L38.4822 18.258C36.5022 18.83 35.5892 19.699 35.5892 19.699C35.5892 19.699 35.8312 19.567 36.2382 19.38C37.4152 18.863 38.3502 18.72 38.7352 18.687C38.8012 18.676 38.8562 18.665 38.9222 18.665C39.5932 18.577 40.3522 18.555 41.1442 18.643C42.1892 18.764 43.3112 19.072 44.4552 19.699C44.4552 19.699 43.5862 18.874 41.7162 18.302L41.8702 18.126C41.8702 18.126 43.3772 18.093 44.9612 19.281C44.9612 19.281 46.5452 22.152 46.5452 25.694C46.5452 25.694 45.6102 27.289 43.1792 27.366Z" fill="#1E1E1E"/>
<path d="M63.9981 31H69.5912C72.5315 31 74.0976 29.4659 74.0976 27.3821C74.0976 25.4453 72.7105 24.2756 71.2211 24.2053V24.0774C72.5827 23.7706 73.5862 22.8054 73.5862 21.2649C73.5862 19.3026 72.1288 17.9091 69.2396 17.9091H63.9981V31ZM66.7659 28.7372V25.2599H69.0862C70.4157 25.2599 71.2403 26.027 71.2403 27.1072C71.2403 28.0916 70.5692 28.7372 69.0223 28.7372H66.7659ZM66.7659 23.3871V20.1463H68.8689C70.0961 20.1463 70.7929 20.7791 70.7929 21.7251C70.7929 22.7607 69.9491 23.3871 68.8177 23.3871H66.7659ZM80.3218 31.1918C82.7508 31.1918 84.3872 30.0092 84.7707 28.1875L82.2522 28.0213C81.9774 28.7692 81.2742 29.1591 80.3666 29.1591C79.0051 29.1591 78.1421 28.2578 78.1421 26.794V26.7876H84.8282V26.0398C84.8282 22.7031 82.8083 21.054 80.2132 21.054C77.324 21.054 75.4511 23.1058 75.4511 26.1357C75.4511 29.2486 77.2984 31.1918 80.3218 31.1918ZM78.1421 25.1001C78.1997 23.9815 79.0498 23.0866 80.2579 23.0866C81.4404 23.0866 82.2586 23.9304 82.265 25.1001H78.1421ZM91.0413 31.1918C93.6556 31.1918 95.2984 29.6577 95.4262 27.4013H92.8566C92.6968 28.4496 92.0065 29.0376 91.0732 29.0376C89.8012 29.0376 88.9767 27.9702 88.9767 26.0909C88.9767 24.2372 89.8076 23.1761 91.0732 23.1761C92.0704 23.1761 92.7096 23.8345 92.8566 24.8125H95.4262C95.3112 22.5433 93.5917 21.054 91.0285 21.054C88.0498 21.054 86.2089 23.1186 86.2089 26.1293C86.2089 29.1143 88.0178 31.1918 91.0413 31.1918ZM101.606 31.1918C104.584 31.1918 106.438 29.1527 106.438 26.1293C106.438 23.0866 104.584 21.054 101.606 21.054C98.627 21.054 96.7733 23.0866 96.7733 26.1293C96.7733 29.1527 98.627 31.1918 101.606 31.1918ZM101.619 29.0824C100.244 29.0824 99.5411 27.8232 99.5411 26.1101C99.5411 24.397 100.244 23.1314 101.619 23.1314C102.967 23.1314 103.67 24.397 103.67 26.1101C103.67 27.8232 102.967 29.0824 101.619 29.0824ZM108.209 31H110.932V25.1065C110.932 24.0199 111.622 23.2976 112.53 23.2976C113.425 23.2976 114.025 23.9112 114.025 24.8764V31H116.665V25.0043C116.665 23.9879 117.247 23.2976 118.238 23.2976C119.107 23.2976 119.759 23.8409 119.759 24.9339V31H122.476V24.397C122.476 22.2685 121.21 21.054 119.382 21.054C117.944 21.054 116.825 21.7891 116.422 22.9141H116.32C116.007 21.7763 115.003 21.054 113.655 21.054C112.332 21.054 111.328 21.7571 110.919 22.9141H110.804V21.1818H108.209V31ZM129.101 31.1918C131.53 31.1918 133.166 30.0092 133.55 28.1875L131.032 28.0213C130.757 28.7692 130.054 29.1591 129.146 29.1591C127.784 29.1591 126.921 28.2578 126.921 26.794V26.7876H133.608V26.0398C133.608 22.7031 131.588 21.054 128.992 21.054C126.103 21.054 124.23 23.1058 124.23 26.1357C124.23 29.2486 126.078 31.1918 129.101 31.1918ZM126.921 25.1001C126.979 23.9815 127.829 23.0866 129.037 23.0866C130.22 23.0866 131.038 23.9304 131.044 25.1001H126.921ZM142.35 31.1854C143.801 31.1854 144.741 30.5526 145.22 29.6385H145.297V31H147.879V24.3778C147.879 22.0384 145.898 21.054 143.712 21.054C141.359 21.054 139.813 22.179 139.435 23.9688L141.954 24.1733C142.139 23.5213 142.721 23.0419 143.699 23.0419C144.626 23.0419 145.156 23.5085 145.156 24.3139V24.3523C145.156 24.9851 144.485 25.0682 142.778 25.2344C140.835 25.4134 139.09 26.0653 139.09 28.2578C139.09 30.201 140.477 31.1854 142.35 31.1854ZM143.13 29.3061C142.293 29.3061 141.692 28.9162 141.692 28.1683C141.692 27.4013 142.325 27.0241 143.283 26.8899C143.878 26.8068 144.85 26.6662 145.176 26.4489V27.4908C145.176 28.5199 144.325 29.3061 143.13 29.3061ZM162.889 22.1406H165.702C165.344 19.5518 163.062 17.7301 160.103 17.7301C156.644 17.7301 153.979 20.223 153.979 24.4673C153.979 28.6094 156.472 31.179 160.16 31.179C163.465 31.179 165.823 29.0888 165.823 25.6435V23.9943H160.345V26.0781H163.158C163.12 27.7017 162.014 28.7308 160.173 28.7308C158.095 28.7308 156.785 27.1776 156.785 24.4418C156.785 21.7188 158.147 20.1783 160.147 20.1783C161.573 20.1783 162.538 20.9134 162.889 22.1406ZM170.574 25.3239C170.581 24.0582 171.354 23.3168 172.466 23.3168C173.572 23.3168 174.224 24.0263 174.218 25.2344V31H176.941V24.7486C176.947 22.4474 175.592 21.054 173.547 21.054C172.057 21.054 171.06 21.7571 170.613 22.9141H170.498V17.9091H167.851V31H170.574V25.3239ZM183.52 31.1918C186.498 31.1918 188.352 29.1527 188.352 26.1293C188.352 23.0866 186.498 21.054 183.52 21.054C180.541 21.054 178.687 23.0866 178.687 26.1293C178.687 29.1527 180.541 31.1918 183.52 31.1918ZM183.533 29.0824C182.158 29.0824 181.455 27.8232 181.455 26.1101C181.455 24.397 182.158 23.1314 183.533 23.1314C184.881 23.1314 185.584 24.397 185.584 26.1101C185.584 27.8232 184.881 29.0824 183.533 29.0824ZM198.292 23.9815C198.049 22.1726 196.592 21.054 194.111 21.054C191.599 21.054 189.944 22.2173 189.95 24.1094C189.944 25.5795 190.871 26.532 192.788 26.9155L194.489 27.2543C195.345 27.4268 195.735 27.7401 195.748 28.2322C195.735 28.8139 195.102 29.2294 194.15 29.2294C193.178 29.2294 192.533 28.8139 192.366 28.0149L189.688 28.1555C189.944 30.0348 191.542 31.1918 194.143 31.1918C196.687 31.1918 198.509 29.8942 198.516 27.9574C198.509 26.5384 197.582 25.6882 195.677 25.2983L193.9 24.9403C192.986 24.7422 192.648 24.429 192.654 23.956C192.648 23.3679 193.312 22.9844 194.156 22.9844C195.102 22.9844 195.665 23.5021 195.799 24.1349L198.292 23.9815ZM205.453 21.1818H203.605V18.8295H200.882V21.1818H199.54V23.2273H200.882V28.3409C200.869 30.2649 202.18 31.2173 204.155 31.1342C204.858 31.1087 205.357 30.968 205.631 30.8786L205.203 28.8523C205.069 28.8778 204.781 28.9418 204.526 28.9418C203.982 28.9418 203.605 28.7372 203.605 27.983V23.2273H205.453V21.1818Z" fill="#1E1E1E"/>
</svg>
