<svg width="723" height="759" viewBox="0 0 723 759" fill="none" xmlns="http://www.w3.org/2000/svg">
<circle opacity="0.5" cx="377.5" cy="345.5" r="153.5" stroke="#EEFF00" stroke-width="2"/>
<circle cx="377.5" cy="345.5" r="247.5" stroke="#EEFF00" stroke-opacity="0.1" stroke-width="2"/>
<circle cx="377.5" cy="345.5" r="345" stroke="#EEFF00" stroke-opacity="0.05"/>
<path opacity="0.1" d="M378 538L378 650" stroke="#EEFF00" stroke-width="2" stroke-linejoin="round"/>
<path d="M480 485.778C480 505.006 464.757 520.556 446 520.556C427.243 520.556 412 505.006 412 485.778C412 466.55 427.243 451 446 451C464.757 451 480 466.55 480 485.778Z" fill="#1E2000" stroke="#EEFF00" stroke-width="2"/>
<path d="M437.444 478V520H440.734V481.802H441.393L444.683 493.206H447.974L450.606 481.802H451.264V493.206H454.555V478H448.632L446.658 487.504H445.341L443.038 478H437.444Z" fill="#EEFF00"/>
<path d="M361.345 380.972C361.129 380.792 360.973 380.672 360.877 380.612C360.793 380.54 360.685 380.456 360.553 380.36C360.265 380.18 359.971 380.042 359.671 379.946C359.371 379.838 359.089 379.76 358.825 379.712C358.573 379.664 358.339 379.634 358.123 379.622C357.919 379.61 357.763 379.604 357.655 379.604C357.511 379.604 357.271 379.616 356.935 379.64C356.611 379.664 356.245 379.736 355.837 379.856C355.441 379.976 355.033 380.162 354.613 380.414C354.205 380.666 353.839 381.014 353.515 381.458C353.239 381.842 353.029 382.286 352.885 382.79C352.753 383.282 352.687 383.762 352.687 384.23C352.687 384.746 352.747 385.202 352.867 385.598C352.999 385.994 353.155 386.336 353.335 386.624C353.527 386.912 353.725 387.152 353.929 387.344C354.145 387.536 354.331 387.686 354.487 387.794C354.715 387.938 355.093 388.112 355.621 388.316C356.149 388.508 356.779 388.604 357.511 388.604C358.315 388.604 358.981 388.496 359.509 388.28C360.037 388.064 360.427 387.866 360.679 387.686C360.775 387.614 360.865 387.542 360.949 387.47C361.033 387.398 361.159 387.284 361.327 387.128L361.345 388.1C361.333 388.46 361.309 388.736 361.273 388.928C361.249 389.12 361.189 389.3 361.093 389.468C360.949 389.768 360.739 389.99 360.463 390.134C360.187 390.29 359.911 390.398 359.635 390.458C359.371 390.53 359.131 390.566 358.915 390.566C358.711 390.578 358.591 390.584 358.555 390.584C357.967 390.584 357.511 390.536 357.187 390.44C356.875 390.356 356.617 390.212 356.413 390.008C356.269 389.876 356.167 389.756 356.107 389.648C356.059 389.54 356.023 389.444 355.999 389.36H352.795C352.855 389.552 352.945 389.804 353.065 390.116C353.185 390.428 353.413 390.776 353.749 391.16C354.025 391.472 354.409 391.76 354.901 392.024C355.393 392.3 356.083 392.492 356.971 392.6C357.199 392.624 357.421 392.642 357.637 392.654C357.865 392.666 358.093 392.672 358.321 392.672C358.585 392.672 358.843 392.66 359.095 392.636C359.347 392.624 359.599 392.606 359.851 392.582C360.571 392.498 361.177 392.354 361.669 392.15C362.161 391.958 362.569 391.724 362.893 391.448C363.217 391.184 363.463 390.89 363.631 390.566C363.811 390.242 363.943 389.912 364.027 389.576C364.111 389.24 364.153 388.91 364.153 388.586C364.165 388.262 364.171 387.926 364.171 387.578V379.892H361.345V380.972ZM358.411 381.692C358.771 381.692 359.125 381.74 359.473 381.836C359.821 381.92 360.133 382.058 360.409 382.25C360.685 382.442 360.907 382.694 361.075 383.006C361.243 383.306 361.327 383.66 361.327 384.068C361.327 384.428 361.273 384.728 361.165 384.968C361.057 385.208 360.967 385.382 360.895 385.49C360.619 385.862 360.253 386.132 359.797 386.3C359.341 386.456 358.891 386.534 358.447 386.534C357.991 386.534 357.619 386.48 357.331 386.372C357.055 386.252 356.839 386.132 356.683 386.012C356.479 385.856 356.311 385.688 356.179 385.508C356.059 385.316 355.969 385.13 355.909 384.95C355.849 384.77 355.807 384.608 355.783 384.464C355.771 384.308 355.765 384.182 355.765 384.086C355.765 383.69 355.837 383.348 355.981 383.06C356.125 382.76 356.317 382.514 356.557 382.322C356.797 382.118 357.073 381.962 357.385 381.854C357.709 381.746 358.051 381.692 358.411 381.692ZM366.889 376.292V389H373.441C373.849 389 374.203 388.994 374.503 388.982C374.803 388.97 375.067 388.952 375.295 388.928C375.535 388.904 375.751 388.874 375.943 388.838C376.135 388.802 376.333 388.754 376.537 388.694C377.173 388.514 377.683 388.286 378.067 388.01C378.451 387.734 378.733 387.512 378.913 387.344C379.105 387.164 379.309 386.942 379.525 386.678C379.753 386.402 379.957 386.072 380.137 385.688C380.329 385.292 380.485 384.842 380.605 384.338C380.725 383.822 380.785 383.24 380.785 382.592C380.785 381.788 380.659 380.99 380.407 380.198C380.167 379.394 379.759 378.698 379.183 378.11C378.979 377.894 378.781 377.72 378.589 377.588C378.397 377.456 378.253 377.36 378.157 377.3C377.809 377.084 377.461 376.91 377.113 376.778C376.777 376.646 376.429 376.544 376.069 376.472C375.721 376.4 375.361 376.352 374.989 376.328C374.629 376.304 374.251 376.292 373.855 376.292H366.889ZM370.057 378.542H373.729C373.981 378.542 374.197 378.548 374.377 378.56C374.557 378.572 374.713 378.59 374.845 378.614C374.989 378.626 375.115 378.644 375.223 378.668C375.343 378.692 375.463 378.728 375.583 378.776C375.799 378.848 375.979 378.932 376.123 379.028C376.279 379.124 376.387 379.202 376.447 379.262C376.747 379.514 376.975 379.814 377.131 380.162C377.287 380.498 377.401 380.828 377.473 381.152C377.545 381.476 377.587 381.764 377.599 382.016C377.611 382.268 377.617 382.43 377.617 382.502C377.617 383.126 377.557 383.666 377.437 384.122C377.329 384.578 377.179 384.968 376.987 385.292C376.807 385.604 376.591 385.862 376.339 386.066C376.087 386.258 375.823 386.402 375.547 386.498C375.355 386.57 375.151 386.624 374.935 386.66C374.731 386.696 374.533 386.72 374.341 386.732C374.161 386.744 373.999 386.75 373.855 386.75C373.723 386.75 373.633 386.75 373.585 386.75H370.057V378.542ZM387.409 376.292L381.271 389H384.745L385.825 386.606H392.341L393.421 389H396.985L390.847 376.292H387.409ZM388.777 380.126C388.861 379.946 388.921 379.796 388.957 379.676C388.993 379.556 389.041 379.4 389.101 379.208C389.125 379.352 389.149 379.472 389.173 379.568C389.197 379.652 389.221 379.73 389.245 379.802C389.269 379.862 389.293 379.922 389.317 379.982C389.353 380.042 389.389 380.114 389.425 380.198L391.315 384.356H386.851L388.777 380.126ZM398.407 376.292V389H401.593V376.292H398.407Z" fill="#EEFF00"/>
<path d="M535.342 213.972C535.126 213.792 534.97 213.672 534.874 213.612C534.79 213.54 534.682 213.456 534.55 213.36C534.262 213.18 533.968 213.042 533.668 212.946C533.368 212.838 533.086 212.76 532.822 212.712C532.57 212.664 532.336 212.634 532.12 212.622C531.916 212.61 531.76 212.604 531.652 212.604C531.508 212.604 531.268 212.616 530.932 212.64C530.608 212.664 530.242 212.736 529.834 212.856C529.438 212.976 529.03 213.162 528.61 213.414C528.202 213.666 527.836 214.014 527.512 214.458C527.236 214.842 527.026 215.286 526.882 215.79C526.75 216.282 526.684 216.762 526.684 217.23C526.684 217.746 526.744 218.202 526.864 218.598C526.996 218.994 527.152 219.336 527.332 219.624C527.524 219.912 527.722 220.152 527.926 220.344C528.142 220.536 528.328 220.686 528.484 220.794C528.712 220.938 529.09 221.112 529.618 221.316C530.146 221.508 530.776 221.604 531.508 221.604C532.312 221.604 532.978 221.496 533.506 221.28C534.034 221.064 534.424 220.866 534.676 220.686C534.772 220.614 534.862 220.542 534.946 220.47C535.03 220.398 535.156 220.284 535.324 220.128L535.342 221.1C535.33 221.46 535.306 221.736 535.27 221.928C535.246 222.12 535.186 222.3 535.09 222.468C534.946 222.768 534.736 222.99 534.46 223.134C534.184 223.29 533.908 223.398 533.632 223.458C533.368 223.53 533.128 223.566 532.912 223.566C532.708 223.578 532.588 223.584 532.552 223.584C531.964 223.584 531.508 223.536 531.184 223.44C530.872 223.356 530.614 223.212 530.41 223.008C530.266 222.876 530.164 222.756 530.104 222.648C530.056 222.54 530.02 222.444 529.996 222.36H526.792C526.852 222.552 526.942 222.804 527.062 223.116C527.182 223.428 527.41 223.776 527.746 224.16C528.022 224.472 528.406 224.76 528.898 225.024C529.39 225.3 530.08 225.492 530.968 225.6C531.196 225.624 531.418 225.642 531.634 225.654C531.862 225.666 532.09 225.672 532.318 225.672C532.582 225.672 532.84 225.66 533.092 225.636C533.344 225.624 533.596 225.606 533.848 225.582C534.568 225.498 535.174 225.354 535.666 225.15C536.158 224.958 536.566 224.724 536.89 224.448C537.214 224.184 537.46 223.89 537.628 223.566C537.808 223.242 537.94 222.912 538.024 222.576C538.108 222.24 538.15 221.91 538.15 221.586C538.162 221.262 538.168 220.926 538.168 220.578V212.892H535.342V213.972ZM532.408 214.692C532.768 214.692 533.122 214.74 533.47 214.836C533.818 214.92 534.13 215.058 534.406 215.25C534.682 215.442 534.904 215.694 535.072 216.006C535.24 216.306 535.324 216.66 535.324 217.068C535.324 217.428 535.27 217.728 535.162 217.968C535.054 218.208 534.964 218.382 534.892 218.49C534.616 218.862 534.25 219.132 533.794 219.3C533.338 219.456 532.888 219.534 532.444 219.534C531.988 219.534 531.616 219.48 531.328 219.372C531.052 219.252 530.836 219.132 530.68 219.012C530.476 218.856 530.308 218.688 530.176 218.508C530.056 218.316 529.966 218.13 529.906 217.95C529.846 217.77 529.804 217.608 529.78 217.464C529.768 217.308 529.762 217.182 529.762 217.086C529.762 216.69 529.834 216.348 529.978 216.06C530.122 215.76 530.314 215.514 530.554 215.322C530.794 215.118 531.07 214.962 531.382 214.854C531.706 214.746 532.048 214.692 532.408 214.692ZM553.432 211.938C553.288 211.698 553.156 211.5 553.036 211.344C552.928 211.176 552.772 210.99 552.568 210.786C552.244 210.474 551.938 210.234 551.65 210.066C551.374 209.898 551.152 209.778 550.984 209.706C550.756 209.598 550.51 209.496 550.246 209.4C549.982 209.304 549.682 209.22 549.346 209.148C549.01 209.064 548.632 209.004 548.212 208.968C547.792 208.92 547.312 208.896 546.772 208.896C545.632 208.896 544.714 209.01 544.018 209.238C543.334 209.466 542.788 209.718 542.38 209.994C542.248 210.078 542.092 210.198 541.912 210.354C541.744 210.498 541.576 210.69 541.408 210.93C541.252 211.158 541.114 211.434 540.994 211.758C540.886 212.082 540.832 212.454 540.832 212.874C540.832 213.354 540.91 213.768 541.066 214.116C541.222 214.464 541.408 214.764 541.624 215.016C541.84 215.256 542.056 215.448 542.272 215.592C542.5 215.724 542.686 215.826 542.83 215.898C543.082 216.018 543.352 216.126 543.64 216.222C543.94 216.306 544.276 216.384 544.648 216.456C545.02 216.528 545.434 216.606 545.89 216.69C546.346 216.762 546.868 216.84 547.456 216.924C548.032 217.02 548.518 217.11 548.914 217.194C549.322 217.266 549.628 217.38 549.832 217.536C550.108 217.74 550.246 218.022 550.246 218.382C550.246 218.694 550.162 218.94 549.994 219.12C549.838 219.3 549.718 219.42 549.634 219.48C549.418 219.624 549.166 219.738 548.878 219.822C548.59 219.894 548.314 219.948 548.05 219.984C547.798 220.02 547.576 220.044 547.384 220.056C547.192 220.056 547.078 220.056 547.042 220.056C546.658 220.056 546.25 220.026 545.818 219.966C545.398 219.906 544.996 219.804 544.612 219.66C544.228 219.516 543.874 219.318 543.55 219.066C543.226 218.802 542.968 218.472 542.776 218.076L539.878 218.814C539.926 218.91 539.974 219 540.022 219.084C540.07 219.168 540.124 219.258 540.184 219.354C540.22 219.414 540.274 219.498 540.346 219.606C540.418 219.714 540.514 219.84 540.634 219.984C540.754 220.128 540.886 220.278 541.03 220.434C541.174 220.578 541.336 220.722 541.516 220.866C541.708 221.01 541.882 221.136 542.038 221.244C542.206 221.34 542.326 221.406 542.398 221.442C542.626 221.562 542.878 221.682 543.154 221.802C543.43 221.91 543.742 222.006 544.09 222.09C544.45 222.186 544.852 222.258 545.296 222.306C545.752 222.366 546.262 222.396 546.826 222.396C547.27 222.396 547.72 222.378 548.176 222.342C548.536 222.306 548.89 222.258 549.238 222.198C549.586 222.15 549.934 222.072 550.282 221.964C550.93 221.76 551.446 221.502 551.83 221.19C552.226 220.878 552.532 220.548 552.748 220.2C552.964 219.84 553.108 219.486 553.18 219.138C553.252 218.778 553.288 218.454 553.288 218.166C553.288 217.578 553.186 217.092 552.982 216.708C552.79 216.312 552.556 215.994 552.28 215.754C552.016 215.502 551.734 215.316 551.434 215.196C551.146 215.064 550.912 214.968 550.732 214.908C550.516 214.836 550.288 214.776 550.048 214.728C549.808 214.668 549.46 214.596 549.004 214.512C548.776 214.464 548.476 214.41 548.104 214.35C547.732 214.29 547.348 214.23 546.952 214.17C546.556 214.098 546.172 214.026 545.8 213.954C545.44 213.882 545.146 213.81 544.918 213.738C544.642 213.642 544.402 213.516 544.198 213.36C544.006 213.204 543.91 212.964 543.91 212.64C543.91 212.328 543.994 212.082 544.162 211.902C544.342 211.71 544.54 211.566 544.756 211.47C544.972 211.374 545.176 211.314 545.368 211.29C545.56 211.254 545.668 211.236 545.692 211.236C545.932 211.2 546.142 211.182 546.322 211.182C546.514 211.17 546.658 211.164 546.754 211.164C547.03 211.164 547.324 211.182 547.636 211.218C547.948 211.242 548.254 211.296 548.554 211.38C548.866 211.464 549.154 211.578 549.418 211.722C549.694 211.866 549.934 212.052 550.138 212.28C550.21 212.352 550.306 212.49 550.426 212.694L553.432 211.938ZM555.88 209.292V222H559.012V217.212H563.44C564.004 217.2 564.586 217.17 565.186 217.122C565.786 217.062 566.338 216.882 566.842 216.582C567.058 216.45 567.232 216.318 567.364 216.186C567.508 216.042 567.61 215.934 567.67 215.862C567.814 215.694 567.922 215.55 567.994 215.43C568.066 215.298 568.12 215.184 568.156 215.088C568.24 214.908 568.306 214.722 568.354 214.53C568.402 214.338 568.438 214.164 568.462 214.008C568.486 213.84 568.498 213.696 568.498 213.576C568.51 213.444 568.516 213.342 568.516 213.27C568.516 212.706 568.45 212.238 568.318 211.866C568.198 211.482 568.078 211.194 567.958 211.002C567.61 210.402 567.142 209.982 566.554 209.742C565.978 209.502 565.36 209.358 564.7 209.31C564.532 209.298 564.37 209.292 564.214 209.292C564.058 209.292 563.896 209.292 563.728 209.292H555.88ZM559.012 211.488H563.476C563.692 211.5 563.848 211.512 563.944 211.524C564.052 211.536 564.16 211.554 564.268 211.578C564.52 211.662 564.718 211.788 564.862 211.956C565.006 212.112 565.114 212.28 565.186 212.46C565.258 212.628 565.3 212.79 565.312 212.946C565.336 213.09 565.348 213.198 565.348 213.27C565.348 213.342 565.342 213.45 565.33 213.594C565.318 213.726 565.282 213.87 565.222 214.026C565.174 214.17 565.09 214.314 564.97 214.458C564.85 214.602 564.682 214.716 564.466 214.8C564.25 214.896 563.998 214.95 563.71 214.962C563.422 214.974 563.158 214.98 562.918 214.98H559.012V211.488ZM569.488 209.292L574.564 215.34L568.75 222H572.8L576.292 217.68C576.352 217.608 576.4 217.542 576.436 217.482C576.484 217.41 576.544 217.29 576.616 217.122C576.652 217.206 576.682 217.278 576.706 217.338C576.73 217.398 576.79 217.494 576.886 217.626L580.432 222H584.464L578.668 215.34L583.726 209.292H579.82L576.922 213C576.862 213.072 576.808 213.144 576.76 213.216C576.724 213.276 576.676 213.39 576.616 213.558C576.532 213.402 576.466 213.294 576.418 213.234C576.382 213.162 576.334 213.09 576.274 213.018L573.466 209.292H569.488Z" fill="#EEFF00"/>
<path d="M530.057 239.08L536.648 232.477L536.636 237.568H537.875V230.364H530.682L530.67 231.591H535.761L529.17 238.193L530.057 239.08ZM553.538 233.273H554.902C554.839 231.517 553.22 230.205 550.97 230.205C548.743 230.205 546.993 231.5 546.993 233.455C546.993 235.023 548.129 235.955 549.947 236.477L551.379 236.886C552.607 237.227 553.697 237.659 553.697 238.818C553.697 240.091 552.47 240.932 550.857 240.932C549.47 240.932 548.243 240.318 548.129 239H546.675C546.811 240.909 548.357 242.205 550.857 242.205C553.538 242.205 555.061 240.727 555.061 238.841C555.061 236.659 552.993 235.955 551.788 235.636L550.607 235.318C549.743 235.091 548.357 234.636 548.357 233.386C548.357 232.273 549.379 231.455 550.925 231.455C552.334 231.455 553.402 232.125 553.538 233.273ZM557.196 245.273H558.537V240.659H558.651C558.946 241.136 559.514 242.182 561.196 242.182C563.378 242.182 564.901 240.432 564.901 237.659C564.901 234.909 563.378 233.159 561.173 233.159C559.469 233.159 558.946 234.205 558.651 234.659H558.491V233.273H557.196V245.273ZM558.514 237.636C558.514 235.682 559.378 234.364 561.014 234.364C562.719 234.364 563.56 235.795 563.56 237.636C563.56 239.5 562.696 240.977 561.014 240.977C559.401 240.977 558.514 239.614 558.514 237.636ZM569.514 242.205C571.037 242.205 571.832 241.386 572.105 240.818H572.173V242H573.514V236.25C573.514 233.477 571.401 233.159 570.287 233.159C568.969 233.159 567.469 233.614 566.787 235.205L568.06 235.659C568.355 235.023 569.054 234.341 570.332 234.341C571.565 234.341 572.173 234.994 572.173 236.114V236.159C572.173 236.807 571.514 236.75 569.923 236.955C568.304 237.165 566.537 237.523 566.537 239.523C566.537 241.227 567.855 242.205 569.514 242.205ZM569.719 241C568.651 241 567.878 240.523 567.878 239.591C567.878 238.568 568.81 238.25 569.855 238.114C570.423 238.045 571.946 237.886 572.173 237.614V238.841C572.173 239.932 571.31 241 569.719 241ZM579.507 242.182C581.439 242.182 582.712 241 582.939 239.455H581.598C581.348 240.409 580.553 240.977 579.507 240.977C577.916 240.977 576.893 239.659 576.893 237.636C576.893 235.659 577.939 234.364 579.507 234.364C580.689 234.364 581.393 235.091 581.598 235.886H582.939C582.712 234.25 581.325 233.159 579.484 233.159C577.121 233.159 575.553 235.023 575.553 237.682C575.553 240.295 577.053 242.182 579.507 242.182ZM588.558 242.182C590.331 242.182 591.626 241.295 592.036 239.977L590.74 239.614C590.399 240.523 589.609 240.977 588.558 240.977C586.984 240.977 585.899 239.96 585.837 238.091H592.172V237.523C592.172 234.273 590.24 233.159 588.422 233.159C586.058 233.159 584.49 235.023 584.49 237.705C584.49 240.386 586.036 242.182 588.558 242.182ZM585.837 236.932C585.928 235.574 586.888 234.364 588.422 234.364C589.876 234.364 590.808 235.455 590.808 236.932H585.837ZM595.075 230.364H593.416L597.166 236.182L593.416 242H595.075L598.075 237.25H598.166L601.166 242H602.825L599.166 236.182L602.825 230.364H601.166L598.166 235.205H598.075L595.075 230.364Z" fill="#BDBDBD"/>
<path d="M504.342 472.972C504.126 472.792 503.97 472.672 503.874 472.612C503.79 472.54 503.682 472.456 503.55 472.36C503.262 472.18 502.968 472.042 502.668 471.946C502.368 471.838 502.086 471.76 501.822 471.712C501.57 471.664 501.336 471.634 501.12 471.622C500.916 471.61 500.76 471.604 500.652 471.604C500.508 471.604 500.268 471.616 499.932 471.64C499.608 471.664 499.242 471.736 498.834 471.856C498.438 471.976 498.03 472.162 497.61 472.414C497.202 472.666 496.836 473.014 496.512 473.458C496.236 473.842 496.026 474.286 495.882 474.79C495.75 475.282 495.684 475.762 495.684 476.23C495.684 476.746 495.744 477.202 495.864 477.598C495.996 477.994 496.152 478.336 496.332 478.624C496.524 478.912 496.722 479.152 496.926 479.344C497.142 479.536 497.328 479.686 497.484 479.794C497.712 479.938 498.09 480.112 498.618 480.316C499.146 480.508 499.776 480.604 500.508 480.604C501.312 480.604 501.978 480.496 502.506 480.28C503.034 480.064 503.424 479.866 503.676 479.686C503.772 479.614 503.862 479.542 503.946 479.47C504.03 479.398 504.156 479.284 504.324 479.128L504.342 480.1C504.33 480.46 504.306 480.736 504.27 480.928C504.246 481.12 504.186 481.3 504.09 481.468C503.946 481.768 503.736 481.99 503.46 482.134C503.184 482.29 502.908 482.398 502.632 482.458C502.368 482.53 502.128 482.566 501.912 482.566C501.708 482.578 501.588 482.584 501.552 482.584C500.964 482.584 500.508 482.536 500.184 482.44C499.872 482.356 499.614 482.212 499.41 482.008C499.266 481.876 499.164 481.756 499.104 481.648C499.056 481.54 499.02 481.444 498.996 481.36H495.792C495.852 481.552 495.942 481.804 496.062 482.116C496.182 482.428 496.41 482.776 496.746 483.16C497.022 483.472 497.406 483.76 497.898 484.024C498.39 484.3 499.08 484.492 499.968 484.6C500.196 484.624 500.418 484.642 500.634 484.654C500.862 484.666 501.09 484.672 501.318 484.672C501.582 484.672 501.84 484.66 502.092 484.636C502.344 484.624 502.596 484.606 502.848 484.582C503.568 484.498 504.174 484.354 504.666 484.15C505.158 483.958 505.566 483.724 505.89 483.448C506.214 483.184 506.46 482.89 506.628 482.566C506.808 482.242 506.94 481.912 507.024 481.576C507.108 481.24 507.15 480.91 507.15 480.586C507.162 480.262 507.168 479.926 507.168 479.578V471.892H504.342V472.972ZM501.408 473.692C501.768 473.692 502.122 473.74 502.47 473.836C502.818 473.92 503.13 474.058 503.406 474.25C503.682 474.442 503.904 474.694 504.072 475.006C504.24 475.306 504.324 475.66 504.324 476.068C504.324 476.428 504.27 476.728 504.162 476.968C504.054 477.208 503.964 477.382 503.892 477.49C503.616 477.862 503.25 478.132 502.794 478.3C502.338 478.456 501.888 478.534 501.444 478.534C500.988 478.534 500.616 478.48 500.328 478.372C500.052 478.252 499.836 478.132 499.68 478.012C499.476 477.856 499.308 477.688 499.176 477.508C499.056 477.316 498.966 477.13 498.906 476.95C498.846 476.77 498.804 476.608 498.78 476.464C498.768 476.308 498.762 476.182 498.762 476.086C498.762 475.69 498.834 475.348 498.978 475.06C499.122 474.76 499.314 474.514 499.554 474.322C499.794 474.118 500.07 473.962 500.382 473.854C500.706 473.746 501.048 473.692 501.408 473.692ZM526.896 468.292H522.342L519.03 476.212C518.934 476.44 518.856 476.638 518.796 476.806C518.736 476.962 518.682 477.106 518.634 477.238C518.598 477.358 518.562 477.478 518.526 477.598C518.502 477.706 518.472 477.826 518.436 477.958C518.316 477.466 518.202 477.088 518.094 476.824C517.986 476.56 517.884 476.314 517.788 476.086L514.494 468.292H509.886V481H512.91L512.874 472.054C512.862 471.862 512.85 471.676 512.838 471.496C512.826 471.304 512.808 471.112 512.784 470.92C512.808 471.016 512.832 471.106 512.856 471.19C512.88 471.274 512.91 471.364 512.946 471.46C512.982 471.556 513.018 471.658 513.054 471.766C513.09 471.862 513.132 471.964 513.18 472.072L516.96 481H519.858L523.656 471.892C523.716 471.724 523.776 471.562 523.836 471.406C523.896 471.25 523.956 471.088 524.016 470.92C523.98 471.172 523.956 471.37 523.944 471.514C523.932 471.658 523.926 471.856 523.926 472.108L523.872 481H526.896V468.292ZM530.523 468.292V481H533.709V468.292H530.523ZM549.432 470.938C549.288 470.698 549.156 470.5 549.036 470.344C548.928 470.176 548.772 469.99 548.568 469.786C548.244 469.474 547.938 469.234 547.65 469.066C547.374 468.898 547.152 468.778 546.984 468.706C546.756 468.598 546.51 468.496 546.246 468.4C545.982 468.304 545.682 468.22 545.346 468.148C545.01 468.064 544.632 468.004 544.212 467.968C543.792 467.92 543.312 467.896 542.772 467.896C541.632 467.896 540.714 468.01 540.018 468.238C539.334 468.466 538.788 468.718 538.38 468.994C538.248 469.078 538.092 469.198 537.912 469.354C537.744 469.498 537.576 469.69 537.408 469.93C537.252 470.158 537.114 470.434 536.994 470.758C536.886 471.082 536.832 471.454 536.832 471.874C536.832 472.354 536.91 472.768 537.066 473.116C537.222 473.464 537.408 473.764 537.624 474.016C537.84 474.256 538.056 474.448 538.272 474.592C538.5 474.724 538.686 474.826 538.83 474.898C539.082 475.018 539.352 475.126 539.64 475.222C539.94 475.306 540.276 475.384 540.648 475.456C541.02 475.528 541.434 475.606 541.89 475.69C542.346 475.762 542.868 475.84 543.456 475.924C544.032 476.02 544.518 476.11 544.914 476.194C545.322 476.266 545.628 476.38 545.832 476.536C546.108 476.74 546.246 477.022 546.246 477.382C546.246 477.694 546.162 477.94 545.994 478.12C545.838 478.3 545.718 478.42 545.634 478.48C545.418 478.624 545.166 478.738 544.878 478.822C544.59 478.894 544.314 478.948 544.05 478.984C543.798 479.02 543.576 479.044 543.384 479.056C543.192 479.056 543.078 479.056 543.042 479.056C542.658 479.056 542.25 479.026 541.818 478.966C541.398 478.906 540.996 478.804 540.612 478.66C540.228 478.516 539.874 478.318 539.55 478.066C539.226 477.802 538.968 477.472 538.776 477.076L535.878 477.814C535.926 477.91 535.974 478 536.022 478.084C536.07 478.168 536.124 478.258 536.184 478.354C536.22 478.414 536.274 478.498 536.346 478.606C536.418 478.714 536.514 478.84 536.634 478.984C536.754 479.128 536.886 479.278 537.03 479.434C537.174 479.578 537.336 479.722 537.516 479.866C537.708 480.01 537.882 480.136 538.038 480.244C538.206 480.34 538.326 480.406 538.398 480.442C538.626 480.562 538.878 480.682 539.154 480.802C539.43 480.91 539.742 481.006 540.09 481.09C540.45 481.186 540.852 481.258 541.296 481.306C541.752 481.366 542.262 481.396 542.826 481.396C543.27 481.396 543.72 481.378 544.176 481.342C544.536 481.306 544.89 481.258 545.238 481.198C545.586 481.15 545.934 481.072 546.282 480.964C546.93 480.76 547.446 480.502 547.83 480.19C548.226 479.878 548.532 479.548 548.748 479.2C548.964 478.84 549.108 478.486 549.18 478.138C549.252 477.778 549.288 477.454 549.288 477.166C549.288 476.578 549.186 476.092 548.982 475.708C548.79 475.312 548.556 474.994 548.28 474.754C548.016 474.502 547.734 474.316 547.434 474.196C547.146 474.064 546.912 473.968 546.732 473.908C546.516 473.836 546.288 473.776 546.048 473.728C545.808 473.668 545.46 473.596 545.004 473.512C544.776 473.464 544.476 473.41 544.104 473.35C543.732 473.29 543.348 473.23 542.952 473.17C542.556 473.098 542.172 473.026 541.8 472.954C541.44 472.882 541.146 472.81 540.918 472.738C540.642 472.642 540.402 472.516 540.198 472.36C540.006 472.204 539.91 471.964 539.91 471.64C539.91 471.328 539.994 471.082 540.162 470.902C540.342 470.71 540.54 470.566 540.756 470.47C540.972 470.374 541.176 470.314 541.368 470.29C541.56 470.254 541.668 470.236 541.692 470.236C541.932 470.2 542.142 470.182 542.322 470.182C542.514 470.17 542.658 470.164 542.754 470.164C543.03 470.164 543.324 470.182 543.636 470.218C543.948 470.242 544.254 470.296 544.554 470.38C544.866 470.464 545.154 470.578 545.418 470.722C545.694 470.866 545.934 471.052 546.138 471.28C546.21 471.352 546.306 471.49 546.426 471.694L549.432 470.938Z" fill="#EEFF00"/>
<path d="M499.057 498.08L505.648 491.477L505.636 496.568H506.875V489.364H499.682L499.67 490.591H504.761L498.17 497.193L499.057 498.08ZM516.175 489.364V501H517.493V492.159H517.607L521.243 501H522.516L526.152 492.159H526.266V501H527.584V489.364H525.902L521.947 499.023H521.811L517.857 489.364H516.175ZM532.795 501.205C534.318 501.205 535.114 500.386 535.386 499.818H535.455V501H536.795V495.25C536.795 492.477 534.682 492.159 533.568 492.159C532.25 492.159 530.75 492.614 530.068 494.205L531.341 494.659C531.636 494.023 532.335 493.341 533.614 493.341C534.847 493.341 535.455 493.994 535.455 495.114V495.159C535.455 495.807 534.795 495.75 533.205 495.955C531.585 496.165 529.818 496.523 529.818 498.523C529.818 500.227 531.136 501.205 532.795 501.205ZM533 500C531.932 500 531.159 499.523 531.159 498.591C531.159 497.568 532.091 497.25 533.136 497.114C533.705 497.045 535.227 496.886 535.455 496.614V497.841C535.455 498.932 534.591 500 533 500ZM542.538 501.182C544.22 501.182 544.788 500.136 545.084 499.659H545.243V501H546.538V489.364H545.197V493.659H545.084C544.788 493.205 544.266 492.159 542.561 492.159C540.357 492.159 538.834 493.909 538.834 496.659C538.834 499.432 540.357 501.182 542.538 501.182ZM542.72 499.977C541.038 499.977 540.175 498.5 540.175 496.636C540.175 494.795 541.016 493.364 542.72 493.364C544.357 493.364 545.22 494.682 545.22 496.636C545.22 498.614 544.334 499.977 542.72 499.977ZM552.839 501.182C554.612 501.182 555.908 500.295 556.317 498.977L555.021 498.614C554.68 499.523 553.891 499.977 552.839 499.977C551.266 499.977 550.18 498.96 550.118 497.091H556.453V496.523C556.453 493.273 554.521 492.159 552.703 492.159C550.339 492.159 548.771 494.023 548.771 496.705C548.771 499.386 550.317 501.182 552.839 501.182ZM550.118 495.932C550.209 494.574 551.169 493.364 552.703 493.364C554.158 493.364 555.089 494.455 555.089 495.932H550.118ZM562.993 501H564.334V492.273H562.993V501ZM563.675 490.818C564.197 490.818 564.629 490.409 564.629 489.909C564.629 489.409 564.197 489 563.675 489C563.152 489 562.72 489.409 562.72 489.909C562.72 490.409 563.152 490.818 563.675 490.818ZM568.131 495.75C568.131 494.227 569.074 493.364 570.358 493.364C571.602 493.364 572.358 494.176 572.358 495.545V501H573.699V495.455C573.699 493.227 572.511 492.159 570.744 492.159C569.426 492.159 568.608 492.75 568.199 493.636H568.085V492.273H566.79V501H568.131V495.75ZM587.195 492.273H588.558C588.496 490.517 586.876 489.205 584.626 489.205C582.399 489.205 580.649 490.5 580.649 492.455C580.649 494.023 581.786 494.955 583.604 495.477L585.036 495.886C586.263 496.227 587.354 496.659 587.354 497.818C587.354 499.091 586.126 499.932 584.513 499.932C583.126 499.932 581.899 499.318 581.786 498H580.331C580.467 499.909 582.013 501.205 584.513 501.205C587.195 501.205 588.717 499.727 588.717 497.841C588.717 495.659 586.649 494.955 585.445 494.636L584.263 494.318C583.399 494.091 582.013 493.636 582.013 492.386C582.013 491.273 583.036 490.455 584.581 490.455C585.99 490.455 587.058 491.125 587.195 492.273ZM590.852 504.273H592.193V499.659H592.307C592.602 500.136 593.17 501.182 594.852 501.182C597.034 501.182 598.557 499.432 598.557 496.659C598.557 493.909 597.034 492.159 594.83 492.159C593.125 492.159 592.602 493.205 592.307 493.659H592.148V492.273H590.852V504.273ZM592.17 496.636C592.17 494.682 593.034 493.364 594.67 493.364C596.375 493.364 597.216 494.795 597.216 496.636C597.216 498.5 596.352 499.977 594.67 499.977C593.057 499.977 592.17 498.614 592.17 496.636ZM603.17 501.205C604.693 501.205 605.489 500.386 605.761 499.818H605.83V501H607.17V495.25C607.17 492.477 605.057 492.159 603.943 492.159C602.625 492.159 601.125 492.614 600.443 494.205L601.716 494.659C602.011 494.023 602.71 493.341 603.989 493.341C605.222 493.341 605.83 493.994 605.83 495.114V495.159C605.83 495.807 605.17 495.75 603.58 495.955C601.96 496.165 600.193 496.523 600.193 498.523C600.193 500.227 601.511 501.205 603.17 501.205ZM603.375 500C602.307 500 601.534 499.523 601.534 498.591C601.534 497.568 602.466 497.25 603.511 497.114C604.08 497.045 605.602 496.886 605.83 496.614V497.841C605.83 498.932 604.966 500 603.375 500ZM613.163 501.182C615.095 501.182 616.368 500 616.595 498.455H615.254C615.004 499.409 614.209 499.977 613.163 499.977C611.572 499.977 610.55 498.659 610.55 496.636C610.55 494.659 611.595 493.364 613.163 493.364C614.345 493.364 615.05 494.091 615.254 494.886H616.595C616.368 493.25 614.982 492.159 613.141 492.159C610.777 492.159 609.209 494.023 609.209 496.682C609.209 499.295 610.709 501.182 613.163 501.182ZM622.214 501.182C623.987 501.182 625.283 500.295 625.692 498.977L624.396 498.614C624.055 499.523 623.266 499.977 622.214 499.977C620.641 499.977 619.555 498.96 619.493 497.091H625.828V496.523C625.828 493.273 623.896 492.159 622.078 492.159C619.714 492.159 618.146 494.023 618.146 496.705C618.146 499.386 619.692 501.182 622.214 501.182ZM619.493 495.932C619.584 494.574 620.544 493.364 622.078 493.364C623.533 493.364 624.464 494.455 624.464 495.932H619.493Z" fill="#BDBDBD"/>
<path d="M127.194 341.972C126.978 341.792 126.822 341.672 126.726 341.612C126.642 341.54 126.534 341.456 126.402 341.36C126.114 341.18 125.82 341.042 125.52 340.946C125.22 340.838 124.938 340.76 124.674 340.712C124.422 340.664 124.188 340.634 123.972 340.622C123.768 340.61 123.612 340.604 123.504 340.604C123.36 340.604 123.12 340.616 122.784 340.64C122.46 340.664 122.094 340.736 121.686 340.856C121.29 340.976 120.882 341.162 120.462 341.414C120.054 341.666 119.688 342.014 119.364 342.458C119.088 342.842 118.878 343.286 118.734 343.79C118.602 344.282 118.536 344.762 118.536 345.23C118.536 345.746 118.596 346.202 118.716 346.598C118.848 346.994 119.004 347.336 119.184 347.624C119.376 347.912 119.574 348.152 119.778 348.344C119.994 348.536 120.18 348.686 120.336 348.794C120.564 348.938 120.942 349.112 121.47 349.316C121.998 349.508 122.628 349.604 123.36 349.604C124.164 349.604 124.83 349.496 125.358 349.28C125.886 349.064 126.276 348.866 126.528 348.686C126.624 348.614 126.714 348.542 126.798 348.47C126.882 348.398 127.008 348.284 127.176 348.128L127.194 349.1C127.182 349.46 127.158 349.736 127.122 349.928C127.098 350.12 127.038 350.3 126.942 350.468C126.798 350.768 126.588 350.99 126.312 351.134C126.036 351.29 125.76 351.398 125.484 351.458C125.22 351.53 124.98 351.566 124.764 351.566C124.56 351.578 124.44 351.584 124.404 351.584C123.816 351.584 123.36 351.536 123.036 351.44C122.724 351.356 122.466 351.212 122.262 351.008C122.118 350.876 122.016 350.756 121.956 350.648C121.908 350.54 121.872 350.444 121.848 350.36H118.644C118.704 350.552 118.794 350.804 118.914 351.116C119.034 351.428 119.262 351.776 119.598 352.16C119.874 352.472 120.258 352.76 120.75 353.024C121.242 353.3 121.932 353.492 122.82 353.6C123.048 353.624 123.27 353.642 123.486 353.654C123.714 353.666 123.942 353.672 124.17 353.672C124.434 353.672 124.692 353.66 124.944 353.636C125.196 353.624 125.448 353.606 125.7 353.582C126.42 353.498 127.026 353.354 127.518 353.15C128.01 352.958 128.418 352.724 128.742 352.448C129.066 352.184 129.312 351.89 129.48 351.566C129.66 351.242 129.792 350.912 129.876 350.576C129.96 350.24 130.002 349.91 130.002 349.586C130.014 349.262 130.02 348.926 130.02 348.578V340.892H127.194V341.972ZM124.26 342.692C124.62 342.692 124.974 342.74 125.322 342.836C125.67 342.92 125.982 343.058 126.258 343.25C126.534 343.442 126.756 343.694 126.924 344.006C127.092 344.306 127.176 344.66 127.176 345.068C127.176 345.428 127.122 345.728 127.014 345.968C126.906 346.208 126.816 346.382 126.744 346.49C126.468 346.862 126.102 347.132 125.646 347.3C125.19 347.456 124.74 347.534 124.296 347.534C123.84 347.534 123.468 347.48 123.18 347.372C122.904 347.252 122.688 347.132 122.532 347.012C122.328 346.856 122.16 346.688 122.028 346.508C121.908 346.316 121.818 346.13 121.758 345.95C121.698 345.77 121.656 345.608 121.632 345.464C121.62 345.308 121.614 345.182 121.614 345.086C121.614 344.69 121.686 344.348 121.83 344.06C121.974 343.76 122.166 343.514 122.406 343.322C122.646 343.118 122.922 342.962 123.234 342.854C123.558 342.746 123.9 342.692 124.26 342.692ZM132.738 337.292V350H135.762V342.998C135.762 342.83 135.762 342.656 135.762 342.476C135.762 342.296 135.756 342.116 135.744 341.936C135.732 341.756 135.72 341.576 135.708 341.396C135.696 341.204 135.678 341.018 135.654 340.838C135.93 341.174 136.2 341.51 136.464 341.846C136.74 342.17 137.016 342.5 137.292 342.836L143.61 350H146.742V337.292H143.718V343.79C143.718 343.958 143.718 344.126 143.718 344.294C143.718 344.462 143.724 344.63 143.736 344.798C143.748 345.338 143.784 345.878 143.844 346.418C143.712 346.25 143.58 346.088 143.448 345.932C143.316 345.776 143.184 345.614 143.052 345.446C142.764 345.098 142.464 344.744 142.152 344.384L135.924 337.292H132.738ZM150.404 337.292V350H160.646V347.66H153.59V337.292H150.404ZM162.392 337.292V350H165.56V346.184L167.486 344.528L172.454 350H176.72L169.664 342.656L175.856 337.292H171.752L165.56 342.854V337.292H162.392Z" fill="#EEFF00"/>
<path d="M89.0099 367.08L95.6009 360.477L95.5895 365.568H96.8281V358.364H89.6349L89.6236 359.591H94.7145L88.1236 366.193L89.0099 367.08ZM115.355 358.364H113.969V367.523H113.855L107.491 358.364H106.128V370H107.537V360.864H107.651L113.991 370H115.355V358.364ZM121.652 370.182C123.425 370.182 124.72 369.295 125.129 367.977L123.834 367.614C123.493 368.523 122.703 368.977 121.652 368.977C120.078 368.977 118.993 367.96 118.93 366.091H125.266V365.523C125.266 362.273 123.334 361.159 121.516 361.159C119.152 361.159 117.584 363.023 117.584 365.705C117.584 368.386 119.129 370.182 121.652 370.182ZM118.93 364.932C119.021 363.574 119.982 362.364 121.516 362.364C122.97 362.364 123.902 363.455 123.902 364.932H118.93ZM132.805 366.432C132.805 368.068 131.555 368.818 130.555 368.818C129.442 368.818 128.646 368 128.646 366.727V361.273H127.305V366.818C127.305 369.045 128.487 370.114 130.124 370.114C131.442 370.114 132.305 369.409 132.714 368.523H132.805V370H134.146V361.273H132.805V366.432ZM136.602 370H137.943V364.477C137.943 363.295 138.875 362.432 140.148 362.432C140.506 362.432 140.875 362.5 140.966 362.523V361.159C140.812 361.148 140.46 361.136 140.261 361.136C139.216 361.136 138.307 361.727 137.989 362.591H137.898V361.273H136.602V370ZM145.124 370.205C146.646 370.205 147.442 369.386 147.714 368.818H147.783V370H149.124V364.25C149.124 361.477 147.01 361.159 145.896 361.159C144.578 361.159 143.078 361.614 142.396 363.205L143.669 363.659C143.964 363.023 144.663 362.341 145.942 362.341C147.175 362.341 147.783 362.994 147.783 364.114V364.159C147.783 364.807 147.124 364.75 145.533 364.955C143.913 365.165 142.146 365.523 142.146 367.523C142.146 369.227 143.464 370.205 145.124 370.205ZM145.328 369C144.26 369 143.487 368.523 143.487 367.591C143.487 366.568 144.419 366.25 145.464 366.114C146.033 366.045 147.555 365.886 147.783 365.614V366.841C147.783 367.932 146.919 369 145.328 369ZM152.912 358.364H151.571V370H152.912V358.364ZM155.368 370H156.709V361.273H155.368V370ZM156.05 359.818C156.572 359.818 157.004 359.409 157.004 358.909C157.004 358.409 156.572 358 156.05 358C155.527 358 155.095 358.409 155.095 358.909C155.095 359.409 155.527 359.818 156.05 359.818ZM160.506 364.75C160.506 363.227 161.449 362.364 162.733 362.364C163.977 362.364 164.733 363.176 164.733 364.545V370H166.074V364.455C166.074 362.227 164.886 361.159 163.119 361.159C161.801 361.159 160.983 361.75 160.574 362.636H160.46V361.273H159.165V370H160.506V364.75ZM168.524 370H169.865V366.733L170.803 365.864L174.07 370H175.774L171.814 365L175.501 361.273H173.842L170.024 365.159H169.865V358.364H168.524V370Z" fill="#BDBDBD"/>
<path d="M262 354.142C262 373.015 246.984 388.284 228.5 388.284C210.016 388.284 195 373.015 195 354.142C195 335.268 210.016 320 228.5 320C246.984 320 262 335.268 262 354.142Z" fill="#1E2000" stroke="#EEFF00" stroke-width="2"/>
<path fill-rule="evenodd" clip-rule="evenodd" d="M228.298 356.95H208L222.663 343.248C223.912 342.081 225.709 341.697 227.351 342.247C228.992 342.796 230.159 344.173 230.394 345.838L232.737 362.385C232.807 362.88 233.141 363.269 233.63 363.426C234.119 363.584 234.628 363.466 234.99 363.111L241.277 356.95H234.077L233.836 355.445H245L236.098 364.169C235.545 364.711 234.811 365 234.056 365C233.75 365 233.441 364.952 233.138 364.855C232.09 364.518 231.345 363.65 231.195 362.59L228.853 346.043C228.695 344.925 227.943 344.038 226.841 343.67C225.74 343.3 224.583 343.548 223.744 344.331L211.851 355.445H228.079L228.298 356.95ZM240.805 349.103H239.393V342.018H240.805L243.483 346.664H243.504V342.018H244.927V349.103H243.536L240.827 344.457H240.805V349.103Z" fill="#EEFF00"/>
<path d="M352.588 734.511C352.588 734.133 352.584 733.817 352.589 733.501C352.594 733.083 352.68 732.994 353.084 732.993C353.64 732.99 354.197 732.998 354.753 732.99C355.052 732.986 355.181 733.119 355.18 733.413C355.174 736.081 355.278 738.755 355.139 741.416C354.954 744.971 352.349 748.249 348.43 749.057C344.844 749.796 341.207 748.31 339.324 745.277C336.097 740.078 339.051 733.342 345.136 732.315C347.923 731.844 350.388 732.608 352.588 734.511ZM340.592 740.634C340.591 744.064 343.212 746.748 346.558 746.76C349.522 746.77 352.654 744.54 352.596 740.535C352.55 737.385 350.082 734.675 346.546 734.657C343.247 734.64 340.592 737.349 340.592 740.634Z" fill="#EEFF00"/>
<path d="M392.238 740.715C392.238 745.531 388.488 749.253 383.605 749.217C378.607 749.179 374.99 745.277 375.075 740.526C375.153 736.125 378.725 732.085 383.907 732.19C388.551 732.285 392.299 736.105 392.238 740.715ZM377.651 740.707C377.643 744.018 380.279 746.748 383.494 746.757C387.014 746.768 389.671 744.169 389.682 740.704C389.692 737.432 387.033 734.725 383.853 734.663C380.291 734.595 377.666 737.405 377.651 740.707Z" fill="#EEFF00"/>
<path d="M360.594 734.12C361.658 733.213 362.804 732.646 364.092 732.352C368.132 731.429 372.439 734.221 373.221 738.273C373.325 738.808 373.379 739.344 373.378 739.891C373.374 742.857 373.376 745.822 373.376 748.788C373.376 749.304 373.371 749.308 372.86 749.309C372.328 749.31 371.796 749.292 371.264 749.315C370.902 749.33 370.78 749.176 370.783 748.835C370.79 747.6 370.786 746.364 370.786 745.129C370.786 743.362 370.786 741.594 370.786 739.828C370.786 737.303 368.903 735.159 366.399 734.833C363.267 734.424 360.595 736.77 360.595 739.929C360.595 742.858 360.595 745.786 360.595 748.715C360.595 749.287 360.574 749.309 360.019 749.309C359.5 749.309 358.979 749.291 358.461 749.315C358.095 749.331 357.994 749.18 357.995 748.835C358.003 744.596 358.001 740.357 358.001 736.119C358.001 734.353 358 732.585 358.001 730.818C358.001 730.391 358.069 730.321 358.49 730.318C359.01 730.315 359.53 730.316 360.049 730.318C360.516 730.32 360.593 730.395 360.594 730.853C360.595 731.913 360.594 732.974 360.594 734.12Z" fill="#EEFF00"/>
<path d="M398.777 746.562C400.212 746.562 401.646 746.565 403.081 746.56C403.391 746.559 403.695 746.501 403.994 746.415C405.149 746.083 405.825 745.095 405.672 743.963C405.523 742.867 404.513 741.973 403.384 741.967C401.652 741.957 399.92 741.966 398.187 741.964C395.83 741.96 393.878 740.401 393.375 738.121C392.889 735.916 394.02 733.64 396.096 732.656C396.709 732.365 397.361 732.236 398.035 732.229C398.802 732.221 399.569 732.236 400.336 732.222C400.654 732.217 400.783 732.33 400.774 732.654C400.758 733.235 400.761 733.816 400.774 734.396C400.781 734.702 400.649 734.816 400.354 734.815C399.587 734.813 398.82 734.808 398.054 734.836C396.665 734.887 395.742 735.854 395.781 737.186C395.816 738.413 396.861 739.357 398.183 739.36C399.94 739.364 401.697 739.347 403.453 739.381C405.895 739.428 407.99 741.354 408.197 743.697C408.423 746.26 406.795 748.488 404.309 749.006C403.36 749.203 402.397 749.191 401.433 749.177C400.382 749.161 399.33 749.171 398.279 749.171C396.98 749.171 395.681 749.163 394.382 749.177C394.047 749.18 393.909 749.07 393.92 748.729C393.936 748.173 393.937 747.616 393.919 747.061C393.907 746.706 394.05 746.58 394.399 746.583C395.859 746.594 397.318 746.588 398.778 746.588C398.777 746.579 398.777 746.57 398.777 746.562Z" fill="#EEFF00"/>
<path d="M412.646 739.782C412.646 741.264 412.644 742.747 412.646 744.23C412.648 745.579 413.686 746.612 415.046 746.618C415.553 746.621 416.06 746.629 416.567 746.615C416.862 746.607 417.005 746.709 417 747.018C416.991 747.611 416.993 748.204 416.999 748.797C417.002 749.05 416.909 749.207 416.64 749.205C415.751 749.198 414.861 749.247 413.977 749.084C411.828 748.688 410.071 746.672 410.059 744.481C410.036 739.798 410.054 735.115 410.048 730.432C410.047 730.111 410.167 729.992 410.487 730C411.068 730.017 411.65 730.015 412.231 730.001C412.54 729.994 412.652 730.132 412.648 730.423C412.641 730.93 412.658 731.437 412.641 731.943C412.633 732.176 412.711 732.233 412.935 732.23C414.122 732.22 415.31 732.225 416.498 732.225C416.972 732.225 416.996 732.25 416.997 732.734C416.998 733.278 416.994 733.822 416.998 734.365C417.001 734.625 416.934 734.768 416.624 734.783C415.412 734.843 414.201 734.8 412.99 734.804C412.719 734.804 412.635 734.862 412.638 735.147C412.654 736.693 412.646 738.238 412.646 739.782Z" fill="#EEFF00"/>
<path d="M346.852 758.133C344.477 758.107 342.61 757.401 340.984 756.05C340.572 755.707 340.574 755.588 340.955 755.227C341.287 754.912 341.617 754.597 341.948 754.282C342.328 753.92 342.391 753.91 342.782 754.242C343.612 754.948 344.563 755.384 345.635 755.565C348.932 756.123 352.105 753.774 352.515 750.564C352.64 749.581 352.442 749.661 353.516 749.663C353.899 749.664 354.283 749.662 354.666 749.663C355.131 749.664 355.203 749.732 355.164 750.209C355.039 751.764 354.586 753.213 353.664 754.485C351.926 756.884 349.532 758.03 346.852 758.133Z" fill="#EEFF00"/>
<path d="M392 687.28C391.835 687.434 391.646 687.51 391.406 687.507C390.576 687.498 389.747 687.491 388.918 687.508C388.505 687.518 388.335 687.342 388.251 686.97C387.119 681.923 382.736 678.513 377.405 678.518C372.338 678.524 367.725 682.284 366.892 687.082C366.743 687.936 366.673 688.795 366.673 689.66C366.673 695.41 366.673 701.161 366.673 706.911C366.673 707.102 366.673 707.292 366.673 707.611C367.298 706.868 367.847 706.219 368.392 705.569C369.371 704.399 370.348 703.229 371.325 702.058C371.808 701.481 371.955 701.469 372.494 701.984C373.786 703.218 375.085 704.444 376.359 705.694C376.664 705.994 376.816 706.056 377.143 705.692C379.42 703.174 381.723 700.679 384.018 698.176C384.544 697.603 384.605 697.601 385.215 698.082C386.193 698.854 387.175 699.623 388.15 700.387C388.337 700.307 388.266 700.163 388.266 700.058C388.27 698.276 388.256 696.495 388.28 694.713C388.285 694.322 388.145 694.249 387.777 694.261C386.911 694.286 386.044 694.263 385.179 694.272C384.927 694.275 384.722 694.222 384.526 694.058C383.542 693.234 382.548 692.422 381.558 691.605C381.374 691.453 381.183 691.297 381.289 691.027C381.397 690.751 381.649 690.772 381.893 690.772C385.026 690.774 388.159 690.78 391.291 690.766C391.778 690.763 391.932 690.926 391.931 691.382C391.92 696.374 391.925 701.365 391.922 706.358C391.922 706.923 391.779 707.045 391.191 706.961C390.611 706.877 390.11 706.622 389.673 706.253C388.277 705.077 386.872 703.912 385.501 702.71C385.146 702.4 384.995 702.452 384.709 702.778C382.349 705.46 379.968 708.125 377.593 710.794C377.122 711.323 377.038 711.327 376.515 710.826C375.21 709.58 373.896 708.343 372.614 707.076C372.277 706.743 372.12 706.719 371.802 707.106C370.05 709.241 368.272 711.355 366.486 713.465C365.779 714.3 364.876 714.851 363.736 714.985C363.183 715.049 363.024 714.92 363.024 714.396C363.022 705.841 362.96 697.285 363.044 688.731C363.112 681.772 368.336 676.195 375.576 675.123C375.71 675.103 375.88 675.168 375.964 675C376.959 675 377.954 675 378.95 675C378.975 675.08 379.041 675.092 379.117 675.101C384.908 675.836 388.91 678.805 391.175 683.945C391.545 684.783 391.682 685.687 392 686.538C392 686.787 392 687.034 392 687.28Z" fill="#EEFF00"/>
<circle cx="469.364" cy="226.364" r="34.3639" fill="#1E2000" stroke="#EEFF00" stroke-width="2"/>
<path d="M464.387 220.297H457.811L457.505 220.956L464.642 226.12L469.077 223.791L464.387 220.297Z" fill="#EEFF00"/>
<path d="M473.766 227.234L470.096 230.07L476.366 234.576H482.891L483.197 234.07L473.766 227.234Z" fill="#EEFF00"/>
<path d="M457.505 234.576L457.046 233.816C475.846 216.277 504.607 211.96 516.637 211.994C488.662 214.14 469.468 227.943 463.367 234.576H457.505Z" fill="#EEFF00"/>
<path d="M351 334.5C351 319.864 362.864 308 377.5 308C392.136 308 404 319.864 404 334.5C404 349.136 392.136 361 377.5 361C362.864 361 351 349.136 351 334.5Z" fill="#1E2000"/>
<path fill-rule="evenodd" clip-rule="evenodd" d="M369.369 323.458H377.746C382.841 323.458 386.704 326.378 388.141 330.628H390.75V333.196H388.69C388.731 333.602 388.751 334.015 388.751 334.435V334.498C388.751 334.971 388.725 335.436 388.674 335.891H390.75V338.46H388.091C386.616 342.649 382.784 345.542 377.746 345.542H369.369V338.46H366.458V335.891H369.369V333.196H366.458V330.628H369.369V323.458ZM371.711 338.46V343.238H377.746C381.47 343.238 384.237 341.324 385.525 338.46H371.711ZM386.243 335.891H371.711V333.196H386.246C386.3 333.62 386.328 334.055 386.328 334.498V334.561C386.328 335.015 386.299 335.459 386.243 335.891ZM377.746 325.758C381.487 325.758 384.263 327.723 385.543 330.628H371.711V325.758H377.746Z" fill="#EEFF00"/>
<path d="M377.5 359C363.969 359 353 348.031 353 334.5H349C349 350.24 361.76 363 377.5 363V359ZM402 334.5C402 348.031 391.031 359 377.5 359V363C393.24 363 406 350.24 406 334.5H402ZM377.5 310C391.031 310 402 320.969 402 334.5H406C406 318.76 393.24 306 377.5 306V310ZM377.5 306C361.76 306 349 318.76 349 334.5H353C353 320.969 363.969 310 377.5 310V306Z" fill="#EEFF00"/>
</svg>
