<svg width="101" height="102" viewBox="0 0 101 102" fill="none" xmlns="http://www.w3.org/2000/svg">
<path d="M98.1428 51C98.1428 78.0969 76.5872 100 50.0743 100C23.5614 100 2.00586 78.0969 2.00586 51C2.00586 23.9031 23.5614 2 50.0743 2C76.5872 2 98.1428 23.9031 98.1428 51Z" stroke="#EEFF00" stroke-width="4"/>
<path fill-rule="evenodd" clip-rule="evenodd" d="M50.9607 57.7007H18L41.8101 35.0626C43.839 33.1336 46.7566 32.4996 49.4229 33.4075C52.0885 34.3159 53.9824 36.5899 54.3648 39.3411L58.1687 66.6803C58.2826 67.4969 58.8248 68.1405 59.6189 68.4003C60.4129 68.6612 61.2391 68.4651 61.8277 67.8796L72.0369 57.7007H60.3442L59.9532 55.2131H78.0821L63.626 69.6266C62.7282 70.5221 61.5369 71 60.3105 71C59.8142 71 59.3114 70.9211 58.8208 70.7605C57.1181 70.2031 55.9089 68.7689 55.665 67.0179L51.8612 39.6793C51.6047 37.8331 50.3841 36.3678 48.5956 35.7586C46.8075 35.1483 44.9275 35.558 43.5653 36.8519L24.2531 55.2131H50.6051L50.9607 57.7007ZM71.2708 44.7352H68.9778V33.0302H71.2708L75.6195 40.7058H75.6534V33.0302H77.9635V44.7352H75.7043L71.3051 37.0596H71.2708V44.7352Z" fill="#EEFF00"/>
</svg>
